<svg xml:space="preserve" style="enable-background:new 0 0 1024 1024;" viewBox="0 0 1024 1024" y="0px" x="0px" xmlns:xlink="http://www.w3.org/1999/xlink" xmlns="http://www.w3.org/2000/svg" id="图层_1" version="1.1">
<style type="text/css">
	.st0{fill:#5EADEF;}
	.st1{fill-rule:evenodd;clip-rule:evenodd;fill:#00893D;}
	.st2{opacity:0.2;}
	.st3{opacity:0.23;}
	.st4{fill-rule:evenodd;clip-rule:evenodd;fill:#597EF7;}
	.st5{opacity:0.3;}
	.st6{fill-rule:evenodd;clip-rule:evenodd;fill:#ADC6FF;}
	.st7{fill:#E0EAFF;}
	.st8{fill-rule:evenodd;clip-rule:evenodd;fill:#253369;}
	.st9{fill-rule:evenodd;clip-rule:evenodd;fill:#BAD6F7;}
	.st10{fill-rule:evenodd;clip-rule:evenodd;fill:#FF7946;}
	.st11{fill-rule:evenodd;clip-rule:evenodd;fill:#FFC53D;}
	.st12{fill-rule:evenodd;clip-rule:evenodd;fill:#BAE637;}
	.st13{fill-rule:evenodd;clip-rule:evenodd;fill:#FFFFFF;}
	.st14{fill-rule:evenodd;clip-rule:evenodd;fill:#CCD7EE;}
	.st15{fill:#D7D7F4;}
	.st16{fill:#597EF7;}
	.st17{fill:#F6F6F6;}
	.st18{fill:#06529C;}
	.st19{fill:#BBBCC0;}
	.st20{opacity:0.5;}
	.st21{fill:#D0E8F4;}
	.st22{opacity:0.22;}
	.st23{fill:#FFFFFF;}
	.st24{opacity:0.31;}
	.st25{fill:#5BB5DC;}
	.st26{fill:#F6C5B0;}
	.st27{fill:#3A3A77;}
	.st28{fill:#33435A;}
</style>
<g>
	<g id="图层_1_00000162334661739950455060000017860675993003994497_">
		<path d="M218.2,131.1c-68.7,0-124.5,55.7-124.5,124.5s55.7,124.5,124.5,124.5c68.7,0,124.5-55.7,124.5-124.4
			c0,0,0,0,0,0C343,187.1,287.1,131.1,218.2,131.1z M291.6,272.3h-75.1c-9,0-14.6-5.6-14.6-12.9v-78.9c0-7.1,5.8-12.9,12.9-12.9
			s12.9,5.8,12.9,12.9v66.1h62.2c6.9-0.1,12.6,5.3,12.9,12.2v0.7C304.5,266.7,298.9,272.3,291.6,272.3L291.6,272.3z M99.3,167.6
			c-7.3-5.6-9-14.6-9-24c-0.4-20.7,15.8-37.8,36.5-38.6h1.7c12.5-0.3,24.4,5.9,31.3,16.3C134.1,129.4,112.2,145.8,99.3,167.6z
			 M282.6,122.1c7.3-9,18.4-16.3,31.3-16.3c20.7-0.4,37.9,15.8,38.6,36.5v1.7c-0.3,9.3-3.4,18.3-9,25.7
			C329.2,147.1,308,130.1,282.6,122.1L282.6,122.1z" class="st0"></path>
		<path d="M138.1,915.7h23.6L201,792h-23.7L138.1,915.7z" class="st1"></path>
		<g class="st2">
			<path d="M96.2,824.2h25c1.1-0.1,1.9-0.9,2-2v-13.5c-0.1-1.1-0.9-1.9-2-2H80c-1-0.1-1.9,0.6-2,1.6c0,0.1,0,0.3,0,0.4
				v91.9c-0.1,1,0.6,1.9,1.6,2c0.1,0,0.3,0,0.4,0h41.2c1,0.1,1.9-0.6,2-1.6c0-0.1,0-0.3,0-0.4v-13.5c-0.1-1.1-0.9-1.9-2-2h-25
				L96.2,824.2z" class="st1"></path>
			<path d="M242.9,901.3h16.2c1,0.1,1.9-0.6,2-1.6c0-0.1,0-0.3,0-0.4v-90.6c-0.1-1.1-0.9-1.9-2-2h-41.2
				c-1-0.1-1.9,0.6-2,1.6c0,0.1,0,0.3,0,0.4v13.5c-0.1,1,0.6,1.9,1.6,2c0.1,0,0.3,0,0.4,0h25v59.5h-25c-1.1,0.1-1.9,0.9-2,2v13.5
				c-0.1,1,0.6,1.9,1.6,2c0.1,0,0.3,0,0.4,0L242.9,901.3z" class="st1"></path>
		</g>
		<g class="st3">
			<path d="M941.4,86.3V58.1c0-3.4-2.8-6.2-6.2-6.3c0,0,0,0-0.1,0h-27.8c-3.4,0-6.2,2.8-6.3,6.2c0,0,0,0,0,0.1v28.2
				c0,3.4,2.8,6.2,6.2,6.3c0,0,0,0,0.1,0h27.8C938.6,92.9,941.4,89.8,941.4,86.3z" class="st4"></path>
		</g>
		<g class="st5">
			<path d="M664.9,889c4.5,0,8.8-1.6,12.2-4.5c6.7-6.3,7-16.9,0.7-23.6s-16.9-7-23.6-0.7c-2.4,2.3-4.1,5.2-4.9,8.3
				l-0.3-0.3c0,0-4.9,42.4-42.1,42.8l0.3,0.3c-9.3-0.1-16.9,7.4-17,16.7c-0.1,9.3,7.4,16.9,16.7,17c9.2,0.1,16.7-7.2,17-16.3
				c0.1-1.2-0.1-2.3-0.3-3.5C624.6,916.1,631.5,896.3,664.9,889z" class="st6"></path>
		</g>
		<path d="M395.5,165.6h144.3v-42.8H361.1C375,135.3,386.9,149.6,395.5,165.6z" class="st7"></path>
		<rect height="130" width="724.5" class="st7" y="504.9" x="111.5"></rect>
		<polygon points="139.3,454.8 538.8,454.8 538.8,411.4 116,411.4 116,454.8" class="st7"></polygon>
		<rect height="344.5" width="234.7" class="st7" y="116.2" x="590.6"></rect>
		<path d="M512.3,264.6h26.4v-43.5H394.5c1.4,8,2.1,16.2,2.1,24.3c0.1,6.4-0.4,12.8-1.4,19.1H512.3z" class="st7"></path>
		<path d="M885,323.3c0-11.5-9.4-20.8-20.9-20.9H317.3c-11.5,0-20.8,9.4-20.9,20.9v52.8H885V323.3z" class="st8"></path>
		<path d="M885,703.8V369.7H296.5v334.1c0,7.7,9.4,13.9,20.9,13.9h546.8C875.6,717.7,885,711.5,885,703.8z" class="st9"></path>
		<path d="M331.2,323.7c-7.1,0-12.9,5.8-12.9,12.9s5.8,12.9,12.9,12.9s12.9-5.8,12.9-12.9c0,0,0,0,0,0
			C344.1,329.5,338.4,323.7,331.2,323.7C331.3,323.7,331.3,323.7,331.2,323.7z" class="st10"></path>
		<path d="M379.9,323.7c-7.1,0-12.9,5.8-12.9,12.9s5.8,12.9,12.9,12.9s12.9-5.8,12.9-12.9c0,0,0,0,0,0
			C392.7,329.5,387,323.8,379.9,323.7z" class="st11"></path>
		<path d="M428.2,323.7c-7.1,0-12.9,5.8-12.9,12.9s5.8,12.9,12.9,12.9s12.9-5.8,12.9-12.9c0,0,0,0,0,0
			C441.4,329.6,435.5,323.7,428.2,323.7z" class="st12"></path>
		<path d="M827.7,670.3c0,0,6.6-2.1,6.6-4.5V412.3c0-2.4-6.6-4.5-6.6-4.5H360.1c0,0-6.6,2.1-6.6,4.5v253.4
			c0,2.4,6.6,4.5,6.6,4.5H827.7z" class="st13"></path>
		<path d="M654.9,458.9c0-3.8-2.1-7.3-4.5-7.3h-27.5c-2.4,0-4.5,3.1-4.5,7.3v176.6c0,3.8,2.1,7.3,4.5,7.3h27.5
			c2.4,0,4.5-3.1,4.5-7.3L654.9,458.9z" class="st10"></path>
		<path d="M503.7,471.8c3.5-0.2,6.1-3.2,5.9-6.6c-0.2-3.2-2.7-5.7-5.9-5.9H394.9c-3.5,0.2-6.1,3.2-5.9,6.6
			c0.2,3.2,2.7,5.7,5.9,5.9H503.7z" class="st4"></path>
		<path d="M438.3,499.6c3.5-0.2,6.1-3.2,5.9-6.6c-0.2-3.2-2.7-5.7-5.9-5.9h-42.1c-3.5,0.2-6.1,3.2-5.9,6.6
			c0.2,3.2,2.7,5.7,5.9,5.9H438.3z" class="st4"></path>
		<path d="M458.5,565.6c0-3.8-2.1-7.3-4.5-7.3h-27.5c-2.4,0-4.5,3.1-4.5,7.3v69.9c0,3.8,2.1,7.3,4.5,7.3H454
			c2.4,0,4.5-3.1,4.5-7.3L458.5,565.6z" class="st14"></path>
		<path d="M556.5,507.9c0-3.8-2.1-7.3-4.5-7.3h-27.5c-2.4,0-4.5,3.1-4.5,7.3v127.6c0,3.8,2.1,7.3,4.5,7.3H552
			c2.4,0,4.5-3.1,4.5-7.3L556.5,507.9z" class="st1"></path>
		<path d="M752.9,507.9c0-3.8-2.1-7.3-4.5-7.3h-27.5c-2.4,0-4.5,3.1-4.5,7.3v127.6c0,3.8,2.1,7.3,4.5,7.3h27.5
			c2.4,0,4.5-3.1,4.5-7.3L752.9,507.9z" class="st11"></path>
		<path d="M389.2,824c0,28,22.7,50.7,50.8,50.7c28,0,50.7-22.7,50.7-50.8c0-28-22.7-50.7-50.7-50.7V824H389.2z" class="st15"></path>
		<path d="M431,768.2V819h-50.8C380.2,791,403,768.2,431,768.2z" class="st16"></path>
		<polygon points="899,743.3 880.3,773.2 774.4,706.5 793.1,676.6" class="st17"></polygon>
		<path d="M935.5,786.7l-0.2,0.3c-5.9,9.4-16.4,13.5-23.5,9.1l-81.3-49.9l21.4-35.9l81.5,51.3
			C940.4,766,941.4,777.2,935.5,786.7z" class="st18"></path>
		<g class="st2">
			<polygon points="781.8,711 787,714.7 833.4,702.7 794.7,678" class="st19"></polygon>
		</g>
		<path d="M760.2,550.1c-49.7-31-115.2-15.9-146.2,33.8c-31,49.7-15.9,115.2,33.8,146.2c49.7,31,115.2,15.9,146.2-33.8
			c0,0,0,0,0,0C825.1,646.6,810,581.2,760.2,550.1z M781.5,688.5c-26.7,42.8-83,55.8-125.8,29.1s-55.8-83-29.1-125.8
			c26.7-42.8,83-55.8,125.8-29.1C795.2,589.4,808.2,645.7,781.5,688.5C781.5,688.5,781.5,688.5,781.5,688.5z" class="st18"></path>
		<g class="st20">
			
				<ellipse ry="91.3" rx="91.3" cy="640.1" cx="704.1" class="st21" transform="matrix(0.7071 -0.7071 0.7071 0.7071 -246.4392 685.3409)"></ellipse>
		</g>
		<g class="st22">
			<path d="M638.3,636.5c-0.5-29.1,18.5-55.4,46.5-63.5s58.5,4.3,73.3,29.4c4.2,7.1,15.5,1.2,11.3-5.9
				c-17-29-50.5-43.8-83.4-36.9c-32.3,6.9-56.2,34.7-60,67.1c-0.3,3.1-0.5,6.3-0.4,9.5C625.7,644.3,638.5,644.7,638.3,636.5
				L638.3,636.5z" class="st23"></path>
		</g>
		<g class="st24">
			<circle r="8.4" cy="622" cx="772.7" class="st23"></circle>
		</g>
		<path d="M831.6,745l20.3-34.2c0.7-1.2,0.4-2.7-0.7-3.5l-0.3-0.3c-1.2-0.9-2.9-0.6-3.7,0.6c-0.1,0.1-0.1,0.2-0.2,0.2
			l-20,34.4c-0.7,1.3-0.3,2.9,0.9,3.6c0,0,0,0,0.1,0l0,0C829.2,746.7,830.8,746.2,831.6,745z" class="st25"></path>
		<path d="M793.1,640.8c0,49.9-40.5,90.3-90.4,90.3c-49.9,0-90.3-40.5-90.3-90.4c0-49.9,40.5-90.3,90.4-90.3
			c32.3,0,62.1,17.2,78.2,45.2C788.9,609.3,793.1,624.9,793.1,640.8c0,3.1,4.9,3.1,4.9,0c0-52.6-42.6-95.2-95.2-95.3
			c-52.6,0-95.2,42.6-95.3,95.2c0,30.8,14.9,59.8,40,77.6c42.8,30.5,102.3,20.5,132.8-22.3c11.5-16.1,17.7-35.4,17.7-55.2
			C798,637.7,793.1,637.7,793.1,640.8z" class="st17"></path>
		<path d="M922.9,806.7c3.4-9,8.4-26.8,11.3-35.4c-6.3-21.1-19.2-56.2-20.5-56.6c-7.8-2.3-14.8-4.3-22.5-6.6
			c-0.4-0.1-2.6,11.5-3,11.4s-0.4-2.4-0.5-5.1l0,0l-1.5-15.1c0-1.3-0.9-2.3-2.1-2.7c-4.6-1.2-14.4-3.5-14.8-2.8
			c-0.2,0.3-1,13.4-1.7,17.2l-1.6-0.9l-2.2-24.5c0,0-17-4.3-17.4-3.5s-4.2,21.7-4.2,21.7s-6.6,49.6-7.3,53.2c-1.1,5.2-4.5,9.8-4,15
			c0.5,5.8,3.1,11.1,5.6,16.3l18,37.9c1.3,8.6,2.7,28.2,4.7,36.7c22.2-4.5,44.5-7.9,69.3-15.8C929,847,921.4,810.6,922.9,806.7z" class="st26"></path>
		<polygon points="852.9,895.2 847.8,850.1 936.6,817.2 952,872.2 853.2,901.8" class="st17"></polygon>
		<path d="M955.5,843.9c0,0-91.4,52.2-110.3,57.1l-5.2,123h155.3L955.5,843.9z" class="st27"></path>
		<path d="M866.6,868.5c-0.7,2.7-3.5,4.3-6.2,3.6c-2.7-0.7-4.3-3.5-3.6-6.2c0.7-2.7,3.5-4.3,6.2-3.6
			C865.7,863,867.3,865.8,866.6,868.5z" class="st28"></path>
		<path d="M825.6,773.6l-11.8-18.7l-17.2-16c0,0-3.3-9.6,7.4-9.9s18,8.7,22.7,15.9c2.1,3.1,12.2,12.3,20.1,17.8
			c10.3,7.3-0.5,39.5-0.5,39.5S826.8,775.4,825.6,773.6z" class="st26"></path>
	</g>
</g>
</svg>
